<svg width="25" height="26" viewBox="0 0 25 26" fill="none" xmlns="http://www.w3.org/2000/svg">
<g clip-path="url(#clip0_106_94)">
<mask id="mask0_106_94" style="mask-type:luminance" maskUnits="userSpaceOnUse" x="0" y="0" width="25" height="25">
<path d="M12.6239 0C9.35377 0.00790348 6.21961 1.30944 3.90587 3.62037C1.59212 5.93131 0.28678 9.06388 0.274902 12.334L0.274902 12.412C0.290998 15.6788 1.59819 18.8067 3.91138 21.1135C6.22457 23.4203 9.35607 24.7189 12.6229 24.726H12.6599C15.9287 24.7155 19.0607 23.4123 21.3722 21.101C23.6837 18.7897 24.9871 15.6578 24.9979 12.389V12.319C24.9823 9.04812 23.6727 5.91637 21.3552 3.60807C19.0377 1.29978 15.9008 0.00260538 12.6299 0L12.6239 0Z" fill="white"/>
</mask>
<g mask="url(#mask0_106_94)">
<path d="M21.483 -8.63323L-8.36011 3.51514L3.78902 33.3601L33.6321 21.2117L21.483 -8.63323Z" fill="url(#paint0_radial_106_94)"/>
</g>
<mask id="mask1_106_94" style="mask-type:luminance" maskUnits="userSpaceOnUse" x="0" y="0" width="25" height="26">
<path d="M25 0.220947H0V25.2209H25V0.220947Z" fill="white"/>
</mask>
<g mask="url(#mask1_106_94)">
<path d="M16.4259 12.2649C16.8562 12.0581 17.206 11.7148 17.4208 11.2885C17.6357 10.8622 17.7036 10.3768 17.6139 9.90793C17.4469 8.25293 16.0139 7.70793 14.2139 7.55493L10.3019 7.57293C10.0019 7.58093 9.70189 7.58793 9.41189 7.58893V7.58193L7.48389 7.59093L7.49189 9.08393C7.49189 9.08393 8.52389 9.05993 8.50689 9.07893C8.6943 9.05485 8.8837 9.10511 9.03453 9.21893C9.18536 9.33275 9.28563 9.5011 9.31389 9.68793L9.32589 12.3039C9.37536 12.3037 9.4248 12.3067 9.47389 12.3129H9.32589L9.34289 15.9779C9.33919 16.0428 9.32271 16.1064 9.29441 16.1649C9.2661 16.2234 9.22652 16.2758 9.17793 16.319C9.12934 16.3622 9.0727 16.3954 9.01126 16.4167C8.94982 16.4379 8.88479 16.4469 8.81989 16.4429C8.83789 16.4589 7.80389 16.4429 7.80389 16.4429L7.53389 18.1139L9.35289 18.1049C9.69189 18.1049 10.0239 18.1049 10.3529 18.1049L10.3639 20.4279L11.7639 20.4219L11.7529 18.1219C12.1359 18.1279 12.5079 18.1299 12.8689 18.1269L12.8789 20.4149L14.2789 20.4079L14.2689 18.0899C16.6179 17.9439 18.2609 17.3439 18.4539 15.1359C18.5263 14.8128 18.5305 14.4782 18.4662 14.1534C18.4019 13.8286 18.2705 13.5208 18.0805 13.2496C17.8905 12.9785 17.646 12.75 17.3626 12.5787C17.0793 12.4074 16.7633 12.2971 16.4349 12.2549M11.7449 9.15493C12.5339 9.15493 15.0109 8.88893 15.0199 10.5359C15.0269 12.1149 12.5469 11.9429 11.7579 11.9459L11.7449 9.15493ZM11.7789 16.4319L11.7649 13.3549C12.7129 13.3549 15.6819 13.0639 15.6899 14.8749C15.6989 16.6109 12.7259 16.4269 11.7779 16.4329" fill="white"/>
<path d="M12.1879 4.20093C12.0891 4.20093 11.9924 4.1716 11.9102 4.11666C11.8279 4.06172 11.7639 3.98363 11.726 3.89227C11.6882 3.80091 11.6783 3.70037 11.6976 3.60338C11.7169 3.50639 11.7645 3.4173 11.8344 3.34737C11.9043 3.27745 11.9934 3.22983 12.0904 3.21054C12.1874 3.19124 12.2879 3.20114 12.3793 3.23899C12.4707 3.27683 12.5487 3.34092 12.6037 3.42314C12.6586 3.50537 12.6879 3.60204 12.6879 3.70093C12.6879 3.83354 12.6353 3.96071 12.5415 4.05448C12.4477 4.14825 12.3206 4.20093 12.1879 4.20093ZM10.1819 3.99293C10.2607 3.9947 10.3371 4.01966 10.4017 4.06467C10.4663 4.10969 10.5161 4.17276 10.545 4.24599C10.5739 4.31922 10.5806 4.39934 10.5641 4.47633C10.5477 4.55333 10.5089 4.62375 10.4526 4.6788C10.3963 4.73384 10.3251 4.77105 10.2477 4.78577C10.1704 4.80049 10.0904 4.79206 10.0179 4.76154C9.9453 4.73102 9.88335 4.67976 9.83979 4.61419C9.79622 4.54862 9.77297 4.47165 9.77295 4.39293C9.77453 4.28577 9.81841 4.18359 9.89503 4.10866C9.97165 4.03372 10.0748 3.99212 10.1819 3.99293ZM14.2059 3.99293C14.2847 3.9947 14.3611 4.01966 14.4257 4.06467C14.4903 4.10969 14.5401 4.17276 14.569 4.24599C14.5979 4.31922 14.6046 4.39934 14.5881 4.47633C14.5717 4.55333 14.5329 4.62375 14.4766 4.6788C14.4203 4.73384 14.3491 4.77105 14.2717 4.78577C14.1944 4.80049 14.1144 4.79206 14.0419 4.76154C13.9693 4.73102 13.9074 4.67976 13.8638 4.61419C13.8202 4.54862 13.797 4.47165 13.7969 4.39293C13.7985 4.28577 13.8424 4.18359 13.919 4.10866C13.9956 4.03372 14.0988 3.99212 14.2059 3.99293ZM10.6219 6.77293L10.2879 4.94993C10.3881 4.92718 10.4809 4.87974 10.5579 4.81193C10.7487 5.01558 11.0043 5.14671 11.2809 5.18293C11.5809 5.18293 11.8279 4.71793 11.9979 4.32793C12.0579 4.35279 12.1221 4.3656 12.1869 4.3656C12.2518 4.3656 12.316 4.35279 12.3759 4.32793C12.5459 4.71793 12.7909 5.18293 13.0929 5.18293C13.3696 5.14671 13.6252 5.01558 13.8159 4.81193C13.893 4.87974 13.9858 4.92718 14.0859 4.94993L13.7529 6.77393H10.6219V6.77293Z" fill="white"/>
</g>
</g>
<defs>
<radialGradient id="paint0_radial_106_94" cx="0" cy="0" r="1" gradientUnits="userSpaceOnUse" gradientTransform="translate(-27.5822 3.29768) rotate(-22.15) scale(44.6261 44.6289)">
<stop stop-color="#F96815"/>
<stop offset="1" stop-color="#F7931A"/>
</radialGradient>
<clipPath id="clip0_106_94">
<rect width="25" height="25.221" fill="white"/>
</clipPath>
</defs>
</svg>
